<mxfile host="drawio-plugin" modified="2022-11-30T15:59:33.528Z" agent="5.0 (Windows NT 6.2; Win64; x64) AppleWebKit/537.36 (KHTML, like Gecko) Chrome/98.0.4758.102 Safari/537.36" version="20.5.3" etag="X1c-44XTw7A2EfClOjzU" type="embed"><diagram id="w9wQrB8c9zL2Ho2Jw35p" name="Page-1"><mxGraphModel dx="656" dy="358" grid="0" gridSize="10" guides="1" tooltips="1" connect="1" arrows="1" fold="1" page="1" pageScale="1" pageWidth="850" pageHeight="1100" math="0" shadow="0"><root><mxCell id="0"/><mxCell id="1" parent="0"/><mxCell id="2" value="LaunchPad" style="rounded=0;whiteSpace=wrap;html=1;fillColor=#dae8fc;strokeColor=#6c8ebf;" vertex="1" parent="1"><mxGeometry x="280" y="330" width="340" height="60" as="geometry"/></mxCell><mxCell id="13" value="" style="group;fillColor=#dae8fc;strokeColor=#6c8ebf;" vertex="1" connectable="0" parent="1"><mxGeometry x="280" y="300" width="340" height="30" as="geometry"/></mxCell><mxCell id="6" value="" style="group" vertex="1" connectable="0" parent="13"><mxGeometry width="255.0025500255002" height="30" as="geometry"/></mxCell><mxCell id="3" value="Pads" style="rounded=0;whiteSpace=wrap;html=1;fillColor=#dae8fc;strokeColor=#6c8ebf;" vertex="1" parent="6"><mxGeometry width="85.00085000850008" height="30" as="geometry"/></mxCell><mxCell id="4" value="Pots" style="rounded=0;whiteSpace=wrap;html=1;fillColor=#dae8fc;strokeColor=#6c8ebf;" vertex="1" parent="6"><mxGeometry x="85.00085000850008" width="85.00085000850008" height="30" as="geometry"/></mxCell><mxCell id="5" value="Keys" style="rounded=0;whiteSpace=wrap;html=1;fillColor=#dae8fc;strokeColor=#6c8ebf;" vertex="1" parent="6"><mxGeometry x="170.00170001700016" width="85.00085000850008" height="30" as="geometry"/></mxCell><mxCell id="12" value="Sliders" style="rounded=0;whiteSpace=wrap;html=1;fillColor=#dae8fc;strokeColor=#6c8ebf;" vertex="1" parent="13"><mxGeometry x="254.99914999149988" width="85.00085000850008" height="30" as="geometry"/></mxCell><mxCell id="15" value="" style="group;fillColor=#d5e8d4;strokeColor=#82b366;container=0;" vertex="1" connectable="0" parent="1"><mxGeometry x="280" y="270" width="340" height="30" as="geometry"/></mxCell><mxCell id="20" value="Sliders" style="rounded=0;whiteSpace=wrap;html=1;fillColor=#d5e8d4;strokeColor=#82b366;container=0;" vertex="1" parent="1"><mxGeometry x="534.9991499914998" y="270" width="85.00085000850008" height="30" as="geometry"/></mxCell><mxCell id="17" value="Pads" style="rounded=0;whiteSpace=wrap;html=1;fillColor=#d5e8d4;strokeColor=#82b366;container=0;" vertex="1" parent="1"><mxGeometry x="280" y="270" width="85.00085000850008" height="30" as="geometry"/></mxCell><mxCell id="18" value="Pots" style="rounded=0;whiteSpace=wrap;html=1;fillColor=#d5e8d4;strokeColor=#82b366;container=0;" vertex="1" parent="1"><mxGeometry x="365.0008500085001" y="270" width="85.00085000850008" height="30" as="geometry"/></mxCell><mxCell id="19" value="Keys" style="rounded=0;whiteSpace=wrap;html=1;fillColor=#d5e8d4;strokeColor=#82b366;container=0;" vertex="1" parent="1"><mxGeometry x="450.0017000170002" y="270" width="85.00085000850008" height="30" as="geometry"/></mxCell><mxCell id="21" value="" style="group;fillColor=#d5e8d4;strokeColor=#82b366;container=0;" vertex="1" connectable="0" parent="1"><mxGeometry x="280" y="230" width="340" height="30" as="geometry"/></mxCell><mxCell id="22" value="Commands" style="rounded=0;whiteSpace=wrap;html=1;fillColor=#d5e8d4;strokeColor=#82b366;container=0;" vertex="1" parent="1"><mxGeometry x="534.9991499914998" y="230" width="85.00085000850008" height="30" as="geometry"/></mxCell><mxCell id="23" value="Commands" style="rounded=0;whiteSpace=wrap;html=1;fillColor=#d5e8d4;strokeColor=#82b366;container=0;" vertex="1" parent="1"><mxGeometry x="280" y="230" width="85.00085000850008" height="30" as="geometry"/></mxCell><mxCell id="24" value="Commands" style="rounded=0;whiteSpace=wrap;html=1;fillColor=#d5e8d4;strokeColor=#82b366;container=0;" vertex="1" parent="1"><mxGeometry x="365.0008500085001" y="230" width="85.00085000850008" height="30" as="geometry"/></mxCell><mxCell id="25" value="Commands" style="rounded=0;whiteSpace=wrap;html=1;fillColor=#d5e8d4;strokeColor=#82b366;container=0;" vertex="1" parent="1"><mxGeometry x="450.0017000170002" y="230" width="85.00085000850008" height="30" as="geometry"/></mxCell></root></mxGraphModel></diagram></mxfile>